<svg width="80" height="80" viewBox="0 0 80 80" fill="none" xmlns="http://www.w3.org/2000/svg">
<path d="M15.1607 61.5423C9.30285 55.6844 9.30284 46.1869 15.1607 40.3291L40.7138 14.7759C46.5717 8.91807 56.0692 8.91807 61.927 14.7759L66.3751 19.224C72.7391 25.588 72.1152 36.1228 65.2298 42.0046C61.3795 45.2937 57.381 48.849 54.1861 52.0092C50.446 55.7086 46.2117 60.4448 42.3971 64.8965C36.5133 71.7631 25.9905 72.372 19.6345 66.016L15.1607 61.5423Z" stroke="#2E3A59" stroke-width="2"/>
<path d="M13.1362 59.2873C7.76625 53.9174 7.26447 45.4046 12.1269 39.6212C16.5091 34.409 21.7879 28.3754 26.3021 23.9102C30.2798 19.9757 35.5538 15.3897 40.2348 11.4712C46.0198 6.62849 54.5205 7.13894 59.8823 12.5008L60.2826 12.9011C66.6467 19.2652 66.0228 29.7999 59.1374 35.6817C55.2871 38.9708 51.2886 42.5262 48.0937 45.6863C44.3536 49.3858 40.1192 54.1219 36.3046 58.5737C30.4209 65.4402 19.898 66.0492 13.542 59.6932L13.1362 59.2873Z" stroke="#2E3A59" stroke-width="2"/>
<rect x="34.1523" y="26.7675" width="15.6653" height="15.6653" rx="7.83265" transform="rotate(-45 34.1523 26.7675)" stroke="#2E3A59" stroke-width="2"/>
</svg>
